<svg xmlns="http://www.w3.org/2000/svg" viewBox="0 0 512 512" fill="none">
  <defs>
    <linearGradient id="bg" x1="72" x2="440" y1="48" y2="464" gradientUnits="userSpaceOnUse">
      <stop stop-color="#f7fbff"/>
      <stop offset=".5" stop-color="#e7f0f8"/>
      <stop offset="1" stop-color="#dce9f4"/>
    </linearGradient>
    <linearGradient id="chrome" x1="156" x2="360" y1="86" y2="404" gradientUnits="userSpaceOnUse">
      <stop stop-color="#1a6dbe"/>
      <stop offset=".65" stop-color="#0d4e86"/>
      <stop offset="1" stop-color="#0c3f69"/>
    </linearGradient>
    <radialGradient id="glow" cx="0" cy="0" r="1" gradientTransform="translate(376 118) rotate(139.3) scale(260.481)" gradientUnits="userSpaceOnUse">
      <stop stop-color="#8fd1ff" stop-opacity=".38"/>
      <stop offset="1" stop-color="#8fd1ff" stop-opacity="0"/>
    </radialGradient>
  </defs>
  <rect width="512" height="512" rx="124" fill="url(#bg)"/>
  <rect x="24" y="24" width="464" height="464" rx="108" stroke="#ffffff" stroke-opacity=".65" stroke-width="6"/>
  <circle cx="382" cy="120" r="156" fill="url(#glow)"/>
  <circle cx="356" cy="386" r="118" fill="#b8d8ee" fill-opacity=".16"/>
  <path d="M190 126v92c0 39.765 32.235 72 72 72s72-32.235 72-72v-92" stroke="url(#chrome)" stroke-linecap="round" stroke-width="28"/>
  <path d="M170 110a26 26 0 1 0 52 0 26 26 0 0 0-52 0Zm120 0a26 26 0 1 0 52 0 26 26 0 0 0-52 0Z" fill="url(#chrome)"/>
  <path d="M262 289v78c0 47.496 38.504 86 86 86h14" stroke="url(#chrome)" stroke-linecap="round" stroke-width="28"/>
  <circle cx="384" cy="453" r="42" fill="#ffffff" fill-opacity=".9"/>
  <circle cx="384" cy="453" r="42" stroke="#0f4f86" stroke-opacity=".18" stroke-width="10"/>
  <circle cx="384" cy="453" r="22" fill="url(#chrome)"/>
  <circle cx="384" cy="453" r="8" fill="#ecf6ff"/>
</svg>
